<svg xmlns="http://www.w3.org/2000/svg" width="21.36" height="21.796" viewBox="0 0 21.36 21.796">
  <g id="googleicon" transform="translate(-202.963 -206.976)">
    <path id="Tracé_60" data-name="Tracé 60" d="M229.425,222.289a9.334,9.334,0,0,0-.23-2.228H218.963V224.1h6.005a5.324,5.324,0,0,1-2.228,3.536l-.02.135,3.235,2.507.224.022a10.656,10.656,0,0,0,3.246-8.016" transform="translate(-5.102 -4.173)" fill="#4285f4"/>
    <path id="Tracé_61" data-name="Tracé 61" d="M214.4,234.883a10.387,10.387,0,0,0,7.216-2.639l-3.439-2.664a6.45,6.45,0,0,1-3.778,1.09,6.562,6.562,0,0,1-6.2-4.529l-.127.011-3.364,2.6-.044.122a10.89,10.89,0,0,0,9.736,6.006" transform="translate(-0.544 -6.111)" fill="#34a853"/>
    <path id="Tracé_62" data-name="Tracé 62" d="M207.661,222.817a6.727,6.727,0,0,1-.363-2.156,7.047,7.047,0,0,1,.351-2.155l-.006-.144-3.406-2.645-.112.053a10.878,10.878,0,0,0,0,9.784l3.536-2.736" transform="translate(0 -2.787)" fill="#fbbc05"/>
    <path id="Tracé_63" data-name="Tracé 63" d="M214.4,211.19a6.04,6.04,0,0,1,4.213,1.622l3.076-3a10.472,10.472,0,0,0-7.289-2.833,10.89,10.89,0,0,0-9.736,6.006l3.524,2.737a6.587,6.587,0,0,1,6.212-4.529" transform="translate(-0.544)" fill="#eb4335"/>
  </g>
</svg>
