<svg xmlns="http://www.w3.org/2000/svg" width="12.943" height="20" viewBox="0 0 12.943 20">
  <g id="Groupe_27" data-name="Groupe 27" transform="translate(-1335.23 -273.479)">
    <path id="Tracé_55" data-name="Tracé 55" d="M1341.7,289.046a1.931,1.931,0,0,1-1.894-1.966v-2.13a1.931,1.931,0,0,1,1.894-1.966,2.788,2.788,0,1,0-2.684-2.786,1.9,1.9,0,1,1-3.788,0,6.476,6.476,0,1,1,12.943,0,6.7,6.7,0,0,1-4.578,6.425v.457A1.931,1.931,0,0,1,1341.7,289.046Z" fill="#161615"/>
    <path id="Tracé_56" data-name="Tracé 56" d="M1398.544,494.2a1.677,1.677,0,0,1-1.677-1.677v-.066a1.677,1.677,0,1,1,3.354,0v.066A1.677,1.677,0,0,1,1398.544,494.2Z" transform="translate(-56.843 -200.717)" fill="#161615"/>
  </g>
</svg>
