<svg xmlns="http://www.w3.org/2000/svg" width="35.89" height="39.21" viewBox="0 0 35.89 39.21">
  <g id="home" transform="translate(-2482.747 -3602.694)">
    <g id="Tracé_84" data-name="Tracé 84" fill="none" stroke-linejoin="round">
      <path d="M2515.637,3617.314v18.27a3.327,3.327,0,0,1-3.33,3.32h-6.64v-16.61h-9.96v16.61h-6.64a3.318,3.318,0,0,1-3.32-3.32v-18.27l14.94-11.62Z" stroke="none"/>
      <path d="M 2500.68701171875 3605.694091796875 L 2485.7470703125 3617.31396484375 L 2485.7470703125 3635.583984375 C 2485.7470703125 3637.4140625 2487.22705078125 3638.904052734375 2489.06689453125 3638.904052734375 L 2495.70703125 3638.904052734375 L 2495.70703125 3622.2939453125 L 2505.6669921875 3622.2939453125 L 2505.6669921875 3638.904052734375 L 2512.306884765625 3638.904052734375 C 2514.14697265625 3638.904052734375 2515.636962890625 3637.4140625 2515.636962890625 3635.583984375 L 2515.636962890625 3617.31396484375 L 2500.68701171875 3605.694091796875 M 2500.68701171875 3602.694091796875 C 2501.336669921875 3602.694091796875 2501.986572265625 3602.904541015625 2502.528076171875 3603.325439453125 L 2517.47802734375 3614.9453125 C 2518.209228515625 3615.513671875 2518.636962890625 3616.387939453125 2518.636962890625 3617.31396484375 L 2518.636962890625 3635.583984375 C 2518.636962890625 3639.06884765625 2515.79736328125 3641.904052734375 2512.306884765625 3641.904052734375 L 2505.6669921875 3641.904052734375 C 2504.01025390625 3641.904052734375 2502.6669921875 3640.560791015625 2502.6669921875 3638.904052734375 L 2502.6669921875 3625.2939453125 L 2498.70703125 3625.2939453125 L 2498.70703125 3638.904052734375 C 2498.70703125 3640.560791015625 2497.36376953125 3641.904052734375 2495.70703125 3641.904052734375 L 2489.06689453125 3641.904052734375 C 2485.58203125 3641.904052734375 2482.7470703125 3639.06884765625 2482.7470703125 3635.583984375 L 2482.7470703125 3617.31396484375 C 2482.7470703125 3616.38818359375 2483.174560546875 3615.51416015625 2483.9052734375 3614.94580078125 L 2498.84521484375 3603.325927734375 C 2499.386962890625 3602.90478515625 2500.036865234375 3602.694091796875 2500.68701171875 3602.694091796875 Z" stroke="none" fill="#000"/>
    </g>
  </g>
</svg>
