<svg xmlns="http://www.w3.org/2000/svg" width="17.364" height="24.069" viewBox="0 0 17.364 24.069">
  <g id="LOGO" transform="translate(-116.78 -2062.5)">
    <g id="Groupe_8" data-name="Groupe 8" transform="translate(117.28 2070.508)">
      <path id="Tracé_29" data-name="Tracé 29" d="M937.344,585.738v4.122a5.154,5.154,0,1,1-10.307,0v-5.253a5.158,5.158,0,0,1,4.529-5.116,4.954,4.954,0,0,1,.595-.038h.03a5.16,5.16,0,0,1,4.648,2.928l-.367.367a2.713,2.713,0,0,1-1.239.711,3.256,3.256,0,0,0-3.041-2.1,3.261,3.261,0,0,0-.838.11,3.253,3.253,0,0,0-2.412,3.141v5.253a3.251,3.251,0,1,0,6.5,0v-3.453A5.592,5.592,0,0,0,937.344,585.738Z" transform="translate(-927.036 -579.453)" fill="none" stroke="#fff" stroke-linecap="round" stroke-width="1" stroke-dasharray="500 100"/>
    </g>
    <g id="Groupe_9" data-name="Groupe 9" transform="translate(119.77 2063)">
      <path id="Tracé_30" data-name="Tracé 30" d="M981.815,460.36l-3.715,3.714c-.1.1-.211.2-.321.3a5.052,5.052,0,0,1-.514.383,5.159,5.159,0,0,1-2.417.814q-.2.015-.391.015a5.148,5.148,0,0,1-4.623-2.872,2.742,2.742,0,0,1,1.582-1.132,3.253,3.253,0,0,0,3.374,2.085,3.328,3.328,0,0,0,.506-.092,3.235,3.235,0,0,0,1.46-.841l3.714-3.714a3.251,3.251,0,0,0-4.6-4.6l-3.714,3.715a3.227,3.227,0,0,0-.364.433,5.625,5.625,0,0,0-2.347.657,5.121,5.121,0,0,1,1.365-2.436l3.715-3.715a5.154,5.154,0,0,1,7.289,7.289Z" transform="translate(-969.447 -451.562)" fill="none" stroke="#fff" stroke-linecap="round" stroke-width="1" stroke-dasharray="500 100"/>
    </g>
  </g>
</svg>
