<svg xmlns="http://www.w3.org/2000/svg" width="39.117" height="39.065" viewBox="0 0 39.117 39.065">
  <g id="Tracé_86" data-name="Tracé 86" transform="translate(-2614.878 -3602.809)" stroke-miterlimit="10">
    <path d="M 2642.4150390625 3638.276123046875 L 2641.051513671875 3635.30322265625 L 2639.488525390625 3631.895263671875 L 2639.35205078125 3631.597900390625 L 2619.803955078125 3631.597900390625 C 2617.914794921875 3631.597900390625 2616.3779296875 3629.837646484375 2616.3779296875 3627.674072265625 L 2616.3779296875 3608.23388671875 C 2616.3779296875 3606.06982421875 2617.914794921875 3604.30908203125 2619.803955078125 3604.30908203125 L 2649.068115234375 3604.30908203125 C 2650.957763671875 3604.30908203125 2652.4951171875 3606.06982421875 2652.4951171875 3608.23388671875 L 2652.4951171875 3627.674072265625 C 2652.4951171875 3629.837646484375 2650.957763671875 3631.597900390625 2649.068115234375 3631.597900390625 L 2645.47802734375 3631.597900390625 L 2645.34130859375 3631.895751953125 L 2643.778564453125 3635.30322265625 L 2642.4150390625 3638.276123046875 Z" stroke="none"/>
    <path d="M 2619.803955078125 3605.80908203125 C 2618.7451171875 3605.80908203125 2617.8779296875 3606.89990234375 2617.8779296875 3608.23388671875 L 2617.8779296875 3627.674072265625 C 2617.8779296875 3629.007080078125 2618.7451171875 3630.097900390625 2619.803955078125 3630.097900390625 L 2640.31396484375 3630.097900390625 L 2640.85205078125 3631.27001953125 L 2642.4150390625 3634.677978515625 L 2643.97802734375 3631.27001953125 L 2644.51611328125 3630.097900390625 L 2649.068115234375 3630.097900390625 C 2650.1279296875 3630.097900390625 2650.9951171875 3629.007080078125 2650.9951171875 3627.674072265625 L 2650.9951171875 3608.23388671875 C 2650.9951171875 3606.89990234375 2650.1279296875 3605.80908203125 2649.068115234375 3605.80908203125 L 2619.803955078125 3605.80908203125 M 2619.803955078125 3602.80908203125 L 2649.068115234375 3602.80908203125 C 2650.493408203125 3602.80908203125 2651.845458984375 3603.481689453125 2652.777587890625 3604.654541015625 C 2653.562744140625 3605.642578125 2653.9951171875 3606.91357421875 2653.9951171875 3608.23388671875 L 2653.9951171875 3627.674072265625 C 2653.9951171875 3628.994140625 2653.562744140625 3630.26513671875 2652.77734375 3631.252685546875 C 2651.84521484375 3632.42529296875 2650.4931640625 3633.097900390625 2649.068115234375 3633.097900390625 L 2646.440185546875 3633.097900390625 L 2645.141845703125 3635.9287109375 L 2642.4150390625 3641.874267578125 L 2639.688232421875 3635.9287109375 L 2638.389892578125 3633.097900390625 L 2619.803955078125 3633.097900390625 C 2618.379150390625 3633.097900390625 2617.02734375 3632.42529296875 2616.09521484375 3631.25244140625 C 2615.310302734375 3630.2646484375 2614.8779296875 3628.993896484375 2614.8779296875 3627.674072265625 L 2614.8779296875 3608.23388671875 C 2614.8779296875 3606.913818359375 2615.31005859375 3605.642822265625 2616.094970703125 3604.655029296875 C 2617.027099609375 3603.48193359375 2618.37890625 3602.80908203125 2619.803955078125 3602.80908203125 Z" stroke="none" fill="#000"/>
  </g>
</svg>
