<svg xmlns="http://www.w3.org/2000/svg" width="30.537" height="39.515" viewBox="0 0 30.537 39.515">
  <path id="Tracé_85" data-name="Tracé 85" d="M2713.955,3627.1a12.273,12.273,0,0,1-8.625,11.718,6.33,6.33,0,0,0,2.694-5.186c0-1.647-1.4-4.357-2.887-6.767a.216.216,0,0,0-.4.085c-.15,1.111-.243,2.108-.3,2.793a.215.215,0,0,1-.416.061,60.642,60.642,0,0,1-2.323-7.264.216.216,0,0,0-.4-.042c-.794,1.685-2.912,6.745-3.674,8.573a.215.215,0,0,1-.41-.042c-.06-.306-.141-.7-.24-1.151a.216.216,0,0,0-.4-.05,9.753,9.753,0,0,0-1.223,3.8,6.327,6.327,0,0,0,2.7,5.187,12.276,12.276,0,0,1-8.625-11.719c0-1.905.97-4.548,2.366-7.363a.418.418,0,0,1,.782.1c.192.876.347,1.636.463,2.23a.417.417,0,0,0,.794.079c1.476-3.539,5.575-13.333,7.112-16.592a.417.417,0,0,1,.783.082,116.986,116.986,0,0,0,4.5,14.058.417.417,0,0,0,.8-.116c.1-1.327.284-3.257.576-5.409a.417.417,0,0,1,.769-.163C2711.241,3618.667,2713.955,3623.914,2713.955,3627.1Z" transform="translate(-2686.418 -3602.304)" stroke="#000" stroke-linejoin="round" stroke-width="6"/>
</svg>
