<svg xmlns="http://www.w3.org/2000/svg" width="30.537" height="39.508" viewBox="0 0 30.537 39.508">
  <g id="Tendances" transform="translate(-2686.418 -3602.312)" fill="none" stroke-linejoin="round">
    <path d="M2713.955,3627.1a12.273,12.273,0,0,1-8.625,11.718,6.33,6.33,0,0,0,2.694-5.186c0-1.647-1.4-4.357-2.887-6.767a.216.216,0,0,0-.4.085c-.15,1.111-.243,2.108-.3,2.793a.215.215,0,0,1-.416.061,60.642,60.642,0,0,1-2.323-7.264.216.216,0,0,0-.4-.042c-.794,1.685-2.912,6.745-3.674,8.573a.215.215,0,0,1-.41-.042c-.06-.306-.141-.7-.24-1.151a.216.216,0,0,0-.4-.05,9.753,9.753,0,0,0-1.223,3.8,6.327,6.327,0,0,0,2.7,5.187,12.276,12.276,0,0,1-8.625-11.719c0-1.905.97-4.548,2.366-7.363a.418.418,0,0,1,.782.1c.192.876.347,1.636.463,2.23a.417.417,0,0,0,.794.079c1.476-3.539,5.575-13.333,7.112-16.592a.417.417,0,0,1,.783.082,116.986,116.986,0,0,0,4.5,14.058.417.417,0,0,0,.8-.116c.1-1.327.284-3.257.576-5.409a.417.417,0,0,1,.769-.163C2711.241,3618.667,2713.955,3623.914,2713.955,3627.1Z" stroke="none"/>
    <path d="M 2698.04296875 3638.819091796875 C 2696.412109375 3637.673095703125 2695.346923828125 3635.777099609375 2695.346923828125 3633.632080078125 C 2695.346923828125 3632.64599609375 2695.84912109375 3631.281982421875 2696.570068359375 3629.827880859375 C 2696.610595703125 3629.746337890625 2696.6865234375 3629.7080078125 2696.76220703125 3629.7080078125 C 2696.8564453125 3629.7080078125 2696.9501953125 3629.767578125 2696.97412109375 3629.8779296875 C 2697.072998046875 3630.3291015625 2697.154052734375 3630.722900390625 2697.214111328125 3631.029052734375 C 2697.236328125 3631.14306640625 2697.3310546875 3631.203369140625 2697.426025390625 3631.203369140625 C 2697.506103515625 3631.203369140625 2697.58642578125 3631.16064453125 2697.6240234375 3631.071044921875 C 2698.385986328125 3629.242919921875 2700.50390625 3624.18310546875 2701.298095703125 3622.498046875 C 2701.337158203125 3622.414794921875 2701.41455078125 3622.375 2701.491943359375 3622.375 C 2701.58447265625 3622.375 2701.6767578125 3622.43212890625 2701.702880859375 3622.5400390625 C 2702.361083984375 3625.3330078125 2703.464111328125 3628.345947265625 2704.02587890625 3629.803955078125 C 2704.0625 3629.8984375 2704.144287109375 3629.9423828125 2704.2255859375 3629.9423828125 C 2704.328857421875 3629.9423828125 2704.431884765625 3629.87158203125 2704.44189453125 3629.742919921875 C 2704.49609375 3629.05810546875 2704.589111328125 3628.06103515625 2704.739013671875 3626.949951171875 C 2704.755615234375 3626.830322265625 2704.85498046875 3626.761962890625 2704.955322265625 3626.761962890625 C 2705.024169921875 3626.761962890625 2705.09375 3626.79443359375 2705.136962890625 3626.864990234375 C 2706.623046875 3629.27490234375 2708.02392578125 3631.985107421875 2708.02392578125 3633.632080078125 C 2708.02392578125 3635.77587890625 2706.958984375 3637.672119140625 2705.330078125 3638.818115234375 C 2710.326904296875 3637.26611328125 2713.955078125 3632.60693359375 2713.955078125 3627.10009765625 C 2713.955078125 3623.9140625 2711.240966796875 3618.6669921875 2708.365966796875 3614.0029296875 C 2708.281982421875 3613.8662109375 2708.147216796875 3613.803466796875 2708.013427734375 3613.803466796875 C 2707.8193359375 3613.803466796875 2707.627685546875 3613.935791015625 2707.596923828125 3614.166015625 C 2707.304931640625 3616.318115234375 2707.1259765625 3618.248046875 2707.02099609375 3619.574951171875 C 2707.0009765625 3619.822509765625 2706.801513671875 3619.959228515625 2706.601806640625 3619.959228515625 C 2706.444091796875 3619.959228515625 2706.2861328125 3619.8740234375 2706.216064453125 3619.69091796875 C 2705.1279296875 3616.8701171875 2702.990966796875 3611.037109375 2701.718017578125 3605.633056640625 C 2701.668212890625 3605.42333984375 2701.489501953125 3605.311767578125 2701.31005859375 3605.311767578125 C 2701.160888671875 3605.311767578125 2701.01123046875 3605.388916015625 2700.93505859375 3605.551025390625 C 2699.39794921875 3608.81005859375 2695.299072265625 3618.60400390625 2693.822998046875 3622.14306640625 C 2693.750732421875 3622.317626953125 2693.59521484375 3622.400390625 2693.440185546875 3622.400390625 C 2693.255859375 3622.400390625 2693.07177734375 3622.283447265625 2693.029052734375 3622.06396484375 C 2692.9130859375 3621.469970703125 2692.758056640625 3620.7099609375 2692.56591796875 3619.833984375 C 2692.519287109375 3619.62060546875 2692.337890625 3619.50537109375 2692.155517578125 3619.50537109375 C 2692.009033203125 3619.50537109375 2691.86181640625 3619.579833984375 2691.783935546875 3619.737060546875 C 2690.387939453125 3622.552001953125 2689.41796875 3625.195068359375 2689.41796875 3627.10009765625 C 2689.41796875 3632.60693359375 2693.047119140625 3637.26708984375 2698.04296875 3638.819091796875 M 2698.04296875 3641.819580078125 C 2697.74755859375 3641.819580078125 2697.44775390625 3641.775634765625 2697.15283203125 3641.68408203125 C 2695.61474609375 3641.2060546875 2694.166748046875 3640.4892578125 2692.849609375 3639.552978515625 C 2691.551513671875 3638.630126953125 2690.4091796875 3637.515380859375 2689.454833984375 3636.23974609375 C 2687.468017578125 3633.584228515625 2686.41796875 3630.423828125 2686.41796875 3627.10009765625 C 2686.41796875 3624.8828125 2687.2939453125 3622.038330078125 2689.09619140625 3618.404296875 C 2689.677001953125 3617.233154296875 2690.84912109375 3616.50537109375 2692.155517578125 3616.50537109375 C 2692.41015625 3616.50537109375 2692.658447265625 3616.53271484375 2692.89794921875 3616.584716796875 C 2694.843505859375 3611.95751953125 2697.133056640625 3606.579345703125 2698.2216796875 3604.271240234375 C 2698.781494140625 3603.081787109375 2699.994140625 3602.311767578125 2701.31005859375 3602.311767578125 C 2702.90185546875 3602.311767578125 2704.27001953125 3603.392822265625 2704.636962890625 3604.94091796875 C 2705.12939453125 3607.030517578125 2705.755126953125 3609.1875 2706.399658203125 3611.20703125 C 2706.893310546875 3610.9443359375 2707.44873046875 3610.803466796875 2708.013427734375 3610.803466796875 C 2709.207275390625 3610.803466796875 2710.294189453125 3611.411865234375 2710.921142578125 3612.43115234375 C 2712.62890625 3615.201416015625 2713.9921875 3617.70458984375 2714.9716796875 3619.86865234375 C 2716.306396484375 3622.817138671875 2716.955078125 3625.1826171875 2716.955078125 3627.10009765625 C 2716.955078125 3630.423828125 2715.905029296875 3633.584228515625 2713.91845703125 3636.239501953125 C 2712.964111328125 3637.514892578125 2711.822021484375 3638.629638671875 2710.523681640625 3639.55224609375 C 2709.206298828125 3640.48828125 2707.75830078125 3641.205322265625 2706.219970703125 3641.68310546875 C 2705.925048828125 3641.774658203125 2705.62548828125 3641.818603515625 2705.330078125 3641.818603515625 C 2704.2119140625 3641.818603515625 2703.15380859375 3641.1904296875 2702.63818359375 3640.14208984375 C 2701.986328125 3638.81689453125 2702.39599609375 3637.21435546875 2703.603759765625 3636.364501953125 C 2704.4931640625 3635.739013671875 2705.02392578125 3634.717529296875 2705.02392578125 3633.632080078125 C 2705.023681640625 3633.611572265625 2705.016845703125 3633.393310546875 2704.8486328125 3632.881591796875 C 2704.64453125 3632.921630859375 2704.43603515625 3632.9423828125 2704.225830078125 3632.9423828125 C 2702.888916015625 3632.9423828125 2701.71240234375 3632.13623046875 2701.228759765625 3630.88818359375 C 2701.22802734375 3630.886474609375 2701.227294921875 3630.884521484375 2701.2265625 3630.882568359375 C 2701.185302734375 3630.77587890625 2701.14208984375 3630.66259765625 2701.0966796875 3630.54296875 C 2700.7998046875 3631.25048828125 2700.55126953125 3631.845947265625 2700.39306640625 3632.22509765625 C 2700.0166015625 3633.125 2699.2705078125 3633.785400390625 2698.374755859375 3634.061279296875 C 2698.494384765625 3634.982421875 2698.996337890625 3635.822509765625 2699.767822265625 3636.364501953125 C 2700.9765625 3637.2138671875 2701.386962890625 3638.816650390625 2700.7353515625 3640.142578125 C 2700.2197265625 3641.191162109375 2699.1611328125 3641.819580078125 2698.04296875 3641.819580078125 Z" stroke="none" fill="#000"/>
  </g>
</svg>
