<svg xmlns="http://www.w3.org/2000/svg" width="9.512" height="13.408" viewBox="0 0 9.512 13.408">
  <g id="de" transform="translate(123.72 -2032.637)">
    <g id="Groupe_51" data-name="Groupe 51" transform="translate(-123.72 2037.001)">
      <path id="Tracé_29" data-name="Tracé 29" d="M933.027,583.106v2.4a3,3,0,1,1-5.991,0v-3.053a3,3,0,0,1,2.632-2.973,2.869,2.869,0,0,1,.346-.022h.018a3,3,0,0,1,2.7,1.7l-.213.214a1.577,1.577,0,0,1-.72.413,1.892,1.892,0,0,0-1.768-1.222,1.837,1.837,0,0,0-.193.01,1.857,1.857,0,0,0-.294.054,1.89,1.89,0,0,0-1.4,1.826V585.5a1.889,1.889,0,1,0,3.779,0v-2.007A3.249,3.249,0,0,0,933.027,583.106Z" transform="translate(-927.036 -579.453)" fill="#707070"/>
    </g>
    <g id="Groupe_52" data-name="Groupe 52" transform="translate(-122.272 2032.637)">
      <path id="Tracé_30" data-name="Tracé 30" d="M976.636,456.676l-2.159,2.159c-.06.06-.123.118-.187.172a2.99,2.99,0,0,1-1.7.7c-.076.006-.151.009-.227.009a2.992,2.992,0,0,1-2.687-1.669,1.594,1.594,0,0,1,.919-.658,1.887,1.887,0,0,0,1.768,1.221,1.9,1.9,0,0,0,.193-.01,1.936,1.936,0,0,0,.294-.054,1.88,1.88,0,0,0,.848-.489l2.159-2.159a1.89,1.89,0,1,0-2.672-2.672l-2.159,2.159a1.89,1.89,0,0,0-.211.252,3.271,3.271,0,0,0-1.364.382,2.977,2.977,0,0,1,.793-1.416l2.159-2.159a3,3,0,0,1,4.236,4.236Z" transform="translate(-969.447 -451.562)" fill="#707070"/>
    </g>
  </g>
</svg>
