<svg xmlns="http://www.w3.org/2000/svg" width="21.539" height="30.364" viewBox="0 0 21.539 30.364">
  <g id="Groupe_409" data-name="Groupe 409" transform="translate(-117.28 -2063)">
    <g id="Groupe_8" data-name="Groupe 8" transform="translate(117.28 2072.883)">
      <path id="Tracé_29" data-name="Tracé 29" d="M940.6,587.725v5.425a6.783,6.783,0,1,1-13.567,0v-6.914A6.789,6.789,0,0,1,933,579.5a6.532,6.532,0,0,1,.783-.05h.04a6.792,6.792,0,0,1,6.117,3.853l-.483.483a3.57,3.57,0,0,1-1.631.936,4.285,4.285,0,0,0-4-2.768,4.3,4.3,0,0,0-1.1.144,4.282,4.282,0,0,0-3.175,4.134v6.914a4.279,4.279,0,1,0,8.557,0v-4.545A7.356,7.356,0,0,0,940.6,587.725Z" transform="translate(-927.036 -579.453)" fill="#161615"/>
    </g>
    <g id="Groupe_9" data-name="Groupe 9" transform="translate(120.558 2063)">
      <path id="Tracé_30" data-name="Tracé 30" d="M985.726,463.143l-4.889,4.888c-.137.137-.278.267-.423.389a6.656,6.656,0,0,1-.677.5,6.786,6.786,0,0,1-3.182,1.072q-.257.019-.515.02a6.777,6.777,0,0,1-6.085-3.78,3.61,3.61,0,0,1,2.082-1.489,4.273,4.273,0,0,0,4,2.766,4.3,4.3,0,0,0,.438-.022,4.378,4.378,0,0,0,.666-.121,4.257,4.257,0,0,0,1.921-1.107l4.888-4.888a4.279,4.279,0,1,0-6.051-6.052l-4.888,4.889a4.266,4.266,0,0,0-.479.57,7.4,7.4,0,0,0-3.089.865,6.741,6.741,0,0,1,1.8-3.206l4.889-4.889a6.784,6.784,0,0,1,9.594,9.594Z" transform="translate(-969.447 -451.562)" fill="#161615"/>
    </g>
  </g>
</svg>
